<?xml version="1.0" encoding="UTF-8"?>
<svg id="Layer_1" xmlns="http://www.w3.org/2000/svg" version="1.1" viewBox="0 0 793.04 793.03">
  <!-- Generator: Adobe Illustrator 29.0.1, SVG Export Plug-In . SVG Version: 2.1.0 Build 192)  -->
  <defs>
    <style>
      .st0 {
        fill: #222;
      }
    </style>
  </defs>
  <path class="st0" d="M676.06,676.26c-39.31,40.18-83.68,69.98-136.36,90.13C270.26,869.45-12.26,659.61.41,374.1,12.29,106.46,284.54-66.37,535.22,24.37c218.31,79.03,321.51,336.83,216.4,545.94-2.59,5.15-5.77,12.84-11.91,14.1-15.26,3.14-15.67-17.57-19.79-27.76-20.98-51.93-110.84-65.73-160.02-63.06-88.53,4.81-150.33,66.17-229.69,94.31-59.74,21.18-139.49,28.55-198.45,1.91-8-3.62-22.27-16.35-28.09-4.45-2.71,5.55.27,8.7,3.35,13.18,35.48,51.54,106.71,67.59,165.79,60.96,92.66-10.39,160.8-84.81,251.41-99.59,48.95-7.98,99.63-1.65,143.23,22.19,13.58,7.43,43.54,27.1,43.9,44.13.28,13.34-25.83,40.31-35.32,50.01ZM647.87,147.22C516.74,13.87,294.14,9.77,156.93,136.62c-9.68,8.95-36.55,31.11-16.41,42.46l167.62,48.38c15.58,5.79,16.83,25.76,2.65,34.03-40.99,8.92-82.75,16.3-124.15,23.85-37.41,6.82-76.3,11.88-113.39,19.61-23.1,4.81-25.01,22.58-27.67,43.33-5.31,41.46-4.37,93.01,15.05,130.69,32.93,63.91,121.41,91.43,189.01,79.36,51.81-9.25,61.44-36.13,69.53-83.47,7.51-44.02,10.75-89.29,15.21-133.62-2.12-15.93-21.91-19.78-23.82-34.17-.94-7.08,1.59-16.57,9.63-18.19,21.34-4.29,45.82,3.83,58.3-19.7,10.05-18.95,4.22-43.66-17.24-50.8-7.97-2.65-31.72-4.2-34.33-12.66-3.15-10.19,6.42-17.97,12.9-24.7,11.32-11.76,27.13-26.24,39.64-36.86,9.66-8.21,16.99-15.67,30.72-10.69,11.11,4.03,33.38,26.93,43.28,35.72,8.31,7.37,30.3,21.6,30.67,33.14.42,13.28-18.09,17.34-22.55,26.95-4.37,9.44-2.79,32.42,3.92,40.86,7.17,9.03,28.84,11.74,30.91,25.09,3.84,24.8-18.26,25.89-19.97,45.9-1.78,20.74,2.86,79.51,8.74,99.34,8.72,29.41,32.96,15.32,53.09,10.49,69.35-16.62,125.18,3.93,181.66,42.76,10.8,3.01,16.87-6.32,19.69-15.41,10.1-32.56,12.1-81.22,9.84-115.14-5.42-81.52-45.06-158.46-101.57-215.93ZM547.25,607.94c-71.66,5.22-125.86,56.67-191.28,79.72-25.34,8.93-58.12,16.93-84.98,18.02-10.78.44-26.35-3.55-35.25,1.75-5.48,3.26-7.89,7.68-3.83,13.25s25.9,12.22,33.32,14.67c108.48,35.79,208.46,25.67,308.23-28.19,29.8-16.09,118.6-64.46,46.23-91.27-22.46-8.32-48.65-9.69-72.45-7.96Z"/>
</svg>